<svg xmlns="http://www.w3.org/2000/svg" viewBox="0 0 24 24" id="avatar">
  <path fill="#303c42" d="M24 8c0-1.762-2.463-2.859-5-2.987V5c0-1.757-1.683-4-3-4-.36 0-.882-.191-1.434-.394C13.792.322 12.915 0 12 0s-1.792.322-2.566.606C8.882.809 8.36 1 8 1 6.683 1 5 3.243 5 5v.013C2.463 5.141 0 6.238 0 8c0 1.232 1.322 2.757 4.115 3.798-.053.47-.103.941-.112 1.405C3.11 13.778 3 14.774 3 15.5c0 .958.889 3.104 2.15 3.452l.04.1C5.735 20.405 7.183 24 12 24s6.265-3.595 6.81-4.949l.04-.1c1.262-.348 2.15-2.494 2.15-3.452 0-.726-.11-1.721-1.003-2.296a15.32 15.32 0 0 0-.112-1.406C22.678 10.757 24 9.232 24 8z"></path>
  <path fill="#6d4c41" d="M6 5c0-1.319 1.355-3 2-3 .538 0 1.141-.221 1.778-.455C10.475 1.29 11.263 1 12 1s1.525.29 2.222.545C14.859 1.779 15.462 2 16 2c.645 0 2 1.681 2 3l.002 2.466C17.999 7.481 17.611 9 12 9 6.422 9 6.006 7.5 6 7.5V5z"></path>
  <path fill="#fff" d="M8 2.5c.538 0 1.141-.221 1.778-.455C10.474 1.79 11.262 1.5 12 1.5s1.525.29 2.222.545c.638.234 1.24.455 1.778.455.645 0 2 1.681 2 3l.002 1.968v-.001L18 5c0-1.319-1.355-3-2-3-.538 0-1.141-.221-1.778-.455C13.525 1.29 12.737 1 12 1s-1.525.29-2.222.545C9.141 1.779 8.538 2 8 2c-.645 0-2 1.681-2 3v.5c0-1.319 1.355-3 2-3z" opacity=".2"></path>
  <path fill="#fee8d7" d="M19 13.5a.5.5 0 0 0 .29.454c.369.17.71.475.71 1.546 0 .764-.872 2.5-1.5 2.5a.499.499 0 0 0-.45.283c-.047.096-.102.23-.167.395C17.361 19.971 16.142 23 12 23s-5.361-3.029-5.883-4.322a5.869 5.869 0 0 0-.167-.395A.499.499 0 0 0 5.5 18C4.872 18 4 16.264 4 15.5c0-1.071.341-1.376.709-1.546A.498.498 0 0 0 5 13.5c0-.455.031-.918.077-1.382 1.8.534 4.088.882 6.923.882s5.123-.348 6.923-.882c.046.464.077.927.077 1.382z"></path>
  <path fill="#7c5e54" d="M12 12C3.607 12 1 9.068 1 8c0-.99 1.82-1.857 4-1.976V7.5c0 .417.338 2.5 7 2.5s7-2.083 7-2.5V6.024c2.18.119 4 .986 4 1.976 0 1.068-2.607 4-11 4z"></path>
  <path fill="#303c42" d="M9.56 6.736A.498.498 0 0 0 10 7h1.065l.519.777a.499.499 0 0 0 .832 0L12.935 7H14a.498.498 0 0 0 .44-.264.498.498 0 0 0-.024-.513l-.482-.723.482-.723a.496.496 0 0 0 .024-.513A.498.498 0 0 0 14 4h-1.065l-.519-.777c-.186-.278-.646-.278-.832 0L11.065 4H10a.498.498 0 0 0-.44.264.498.498 0 0 0 .024.513l.482.723-.482.723a.496.496 0 0 0-.024.513z"></path>
  <path fill="#ffd54f" d="M11.083 5.223 10.935 5h.398a.499.499 0 0 0 .416-.223L12 4.401l.251.376c.093.14.249.223.416.223h.398l-.148.223a.5.5 0 0 0 0 .555l.148.222h-.398a.499.499 0 0 0-.416.223L12 6.599l-.251-.376A.499.499 0 0 0 11.333 6h-.398l.148-.223a.499.499 0 0 0 0-.554z"></path>
  <linearGradient id="a" x1="8.539" x2="18.751" y1="15.344" y2="5.131" gradientTransform="matrix(1 0 0 -1 0 24)" gradientUnits="userSpaceOnUse">
    <stop offset="0" stop-opacity=".1"></stop>
    <stop offset="1" stop-opacity="0"></stop>
  </linearGradient>
  <path fill="url(#a)" d="M17.883 18.678c.065-.165.12-.299.167-.395A.499.499 0 0 1 18.5 18c.628 0 1.5-1.736 1.5-2.5 0-1.071-.341-1.376-.71-1.546A.5.5 0 0 1 19 13.5c0-.455-.031-.918-.077-1.382-1.8.534-4.088.882-6.923.882s-5.123-.348-6.923-.882L15.17 22.211c1.683-.989 2.36-2.658 2.713-3.533z"></path>
  <circle cx="8.5" cy="14" r="1" fill="#303c42"></circle>
  <circle cx="15.5" cy="14" r="1" fill="#303c42"></circle>
  <linearGradient id="b" x1="10.245" x2="18.872" y1="19.951" y2="11.325" gradientTransform="matrix(1 0 0 -1 0 24)" gradientUnits="userSpaceOnUse">
    <stop offset="0" stop-opacity=".1"></stop>
    <stop offset="1" stop-opacity="0"></stop>
  </linearGradient>
  <path fill="url(#b)" d="M23 8c0-.99-1.82-1.857-4-1.976V7.5c0 .417-.338 2.5-7 2.5-3.831 0-5.565-.688-6.352-1.353h-.001l3.191 3.191C9.79 11.939 10.834 12 12 12c8.393 0 11-2.932 11-4z"></path>
  <linearGradient id="c" x1=".489" x2="21.031" y1="17.458" y2="7.879" gradientTransform="matrix(1 0 0 -1 0 24)" gradientUnits="userSpaceOnUse">
    <stop offset="0" stop-color="#fff" stop-opacity=".2"></stop>
    <stop offset="1" stop-color="#fff" stop-opacity="0"></stop>
  </linearGradient>
  <path fill="url(#c)" d="M24 8c0-1.762-2.463-2.859-5-2.987V5c0-1.757-1.683-4-3-4-.36 0-.882-.191-1.434-.394C13.792.322 12.915 0 12 0s-1.792.322-2.566.606C8.882.809 8.36 1 8 1 6.683 1 5 3.243 5 5v.013C2.463 5.141 0 6.238 0 8c0 1.232 1.322 2.757 4.115 3.798-.053.47-.103.941-.112 1.405C3.11 13.778 3 14.774 3 15.5c0 .958.889 3.104 2.15 3.452l.04.1C5.735 20.405 7.183 24 12 24s6.265-3.595 6.81-4.949l.04-.1c1.262-.348 2.15-2.494 2.15-3.452 0-.726-.11-1.721-1.003-2.296a15.32 15.32 0 0 0-.112-1.406C22.678 10.757 24 9.232 24 8z"></path>
</svg>
