<svg width="296.4" height="75.636" viewBox="0 0 369.579 94.31" class="prefix__looka-1j8o68f">
  <g fill="#24305e">
    <path xmlns="http://www.w3.org/2000/svg" d="M36.623 70.23a12.048 12.048 0 00-11.13 7.44 12.05 12.05 0 002.632 13.13 12.05 12.05 0 0013.136 2.582 12.05 12.05 0 007.401-11.156c-.022-6.634-5.405-11.996-12.04-11.996zm0 16.469a4.384 4.384 0 01-4.052-2.709 4.393 4.393 0 01.949-4.78 4.393 4.393 0 014.78-.949 4.384 4.384 0 012.709 4.052 4.385 4.385 0 01-4.386 4.298zM93.728 70.23a12.046 12.046 0 00-11.113 7.456 12.043 12.043 0 002.642 13.12 12.037 12.037 0 0013.136 2.571 12.038 12.038 0 007.396-11.151c-.038-6.634-5.428-11.996-12.062-11.996zm0 16.469a4.384 4.384 0 01-4.052-2.709 4.393 4.393 0 01.949-4.78 4.393 4.393 0 014.78-.949 4.384 4.384 0 012.709 4.052 4.385 4.385 0 01-4.386 4.298zM100.11 40.405a10.958 10.958 0 00-6.163 9.825 10.834 10.834 0 007.04 10.066l9.298 3.245 4.232 1.448v-31.47l-4.232 2.018zM57.346 41.94h24.363v16.514H57.346zM28.772 41.94h24.342v16.514H28.772z"/>
    
    <path xmlns="http://www.w3.org/2000/svg" d="M99.54 64.375a15.087 15.087 0 01-1.207-27.764l4.671-2.193 8.772-4.233H26.645c-6.41.011-11.607 5.192-11.645 11.601V78.06a6.36 6.36 0 006.338 6.36h.24a11.76 11.76 0 01-.174-2.194c-.006-.69.054-1.381.175-2.061 1.036-7.506 7.456-13.103 15.033-13.103 7.577 0 13.997 5.597 15.033 13.103.126.685.181 1.387.175 2.083.011.735-.049 1.47-.175 2.193h26.952a13.58 13.58 0 010-2.215c-.006-.696.05-1.392.153-2.083a15.197 15.197 0 0130.021-.11c.116.724.17 1.459.176 2.193.01.735-.044 1.47-.154 2.193a6.36 6.36 0 005.724-6.294V69.55l-4.232-1.47zM85.92 60.58c0 .58-.23 1.14-.641 1.551-.412.411-.97.642-1.552.642H26.644a2.192 2.192 0 01-2.193-2.193V39.835c0-1.211.982-2.193 2.193-2.193h57.171a2.195 2.195 0 012.193 2.193zM131.228 39.068h-2.193l-2.193-7.5a2.194 2.194 0 00-2.017-1.492h-7.61c.214.46.362.949.438 1.448v2.763h5.57l1.426 4.78h-1.535a2.192 2.192 0 00-2.193 2.193v12.018a2.191 2.191 0 002.193 2.193h8.114a2.191 2.191 0 002.193-2.193V41.195a2.193 2.193 0 00-2.193-2.128zM58.859 19.2a2.184 2.184 0 00.367 2.615c.69.696 1.76.844 2.615.367 6.782-6.782 17.78-6.782 24.562 0 .4.39.932.609 1.49.614a2.032 2.032 0 001.492-.614 2.196 2.196 0 000-2.982 21.597 21.597 0 00-30.526 0z"/>
    
    <path xmlns="http://www.w3.org/2000/svg" d="M52.807 13.06c5.68-5.67 13.377-8.85 21.403-8.85s15.724 3.18 21.404 8.85a2.2 2.2 0 001.612 1.107c.68.093 1.37-.137 1.853-.625a2.192 2.192 0 00.625-1.853 2.2 2.2 0 00-1.108-1.612C92.122 3.624 83.356 0 74.21 0S56.3 3.624 49.824 10.077a2.2 2.2 0 00-1.107 1.612c-.093.68.137 1.37.625 1.853a2.192 2.192 0 001.853.625 2.2 2.2 0 001.612-1.108z"/>
  </g>

  <path transform="translate(0,10)" d="M160.81 51.257c.126.293 1.13 3.14-.167 6.111-1.507 3.558-5.734 5.776-11.008 5.818-4.562 0-8.705-2.01-11.635-5.19l3.097-3.097c1.465 2.595 5.19 4.436 8.538 4.436 3.642-.042 5.776-1.38 6.655-3.474.67-1.548.126-3.222.084-3.264-.879-2.428-3.307-2.972-6.739-4.018-3.892-1.172-8.37-2.135-9.835-6.237-.795-2.134-.586-4.603.502-6.612 2.428-4.604 8.622-4.73 9.333-4.73 4.604 0 8.706 2.009 11.636 5.232l-3.055 3.055c-1.716-2.511-5.065-4.436-8.58-4.436-.042 0-3.726 0-5.149 2.678-.544 1.047-.67 2.428-.293 3.516.837 2.302 3.223 2.846 6.572 3.85 3.976 1.214 8.454 2.135 10.045 6.362zm24.527-.418v11.928h-4.353l.042-.167V51.257c0-4.185-1.088-6.027-4.646-6.027-4.018 0-5.44 2.805-5.44 6.446v11.091h-4.312V42.091h4.311v3.349c.586-1.842 2.972-3.516 5.441-3.683 4.06-.293 6.948 1.046 8.246 4.394.878-2.846 3.683-4.227 6.11-4.394 5.609-.419 8.957 2.301 8.957 9.082v11.928h-4.311v-11.51c0-4.185-1.088-6.027-4.646-6.027-3.6 0-5.106 2.26-5.399 5.609zm27.959-9.166c5.943 0 8.329 3.6 8.329 6.655v14.44h-4.311v-2.26c-1.507 2.05-4.186 2.636-5.86 2.636-4.73 0-7.827-2.762-7.827-6.446 0-5.148 3.85-6.99 7.827-6.99h5.86v-1.38c0-1.298-.503-3.098-4.018-3.098-1.968 0-3.767 1.047-4.94 2.68l-2.97-2.68c1.966-2.176 4.77-3.557 7.91-3.557zm4.018 14.649v-3.097h-5.274c-2.553 0-4.353 1.297-4.06 3.64.251 1.968 1.842 2.763 4.06 2.763 3.976 0 5.274-1.883 5.274-3.306zm21.931-13.98l-.92 3.39c-.294-.167-1.214-.46-1.968-.46-3.557 0-5.232 3.39-5.232 7.576v9.92h-4.31V42.09h4.31v2.93c.503-1.925 2.721-3.306 5.19-3.306 1.13 0 2.344.293 2.93.627zm10.464 16.993c1.339.544 2.385.168 3.013-.125v3.348c-.544.335-1.34.628-2.47.628-2.469 0-4.645-.795-5.984-2.972-1.256-2.093-1.256-3.223-1.256-6.487v-8.12h-2.511v-3.516h2.511v-6.529h4.311v6.53h5.4v3.515h-5.4v8.12c0 3.432.335 4.687 2.386 5.608zm42.523-27.958h5.65L284.95 50.295v12.472h-4.646V50.295l-12.933-18.918h5.65l9.585 14.649zm15.738 10.296c5.943 0 8.329 3.6 8.329 6.655v14.44h-4.311v-2.26c-1.507 2.05-4.186 2.636-5.86 2.636-4.73 0-7.827-2.762-7.827-6.446 0-5.148 3.85-6.99 7.827-6.99h5.86v-1.38c0-1.298-.503-3.098-4.018-3.098-1.967 0-3.767 1.047-4.94 2.68l-2.97-2.68c1.966-2.176 4.77-3.557 7.91-3.557zm4.018 14.649v-3.097h-5.274c-2.553 0-4.353 1.297-4.06 3.64.251 1.968 1.842 2.763 4.06 2.763 3.976 0 5.274-1.883 5.274-3.306zm17.453 3.013c1.34.544 2.386.168 3.013-.125v3.348c-.544.335-1.339.628-2.47.628-2.468 0-4.645-.795-5.984-2.972-1.256-2.093-1.256-3.223-1.256-6.487v-8.12h-2.511v-3.516h2.511v-6.529h4.311v6.53h5.4v3.515h-5.4v8.12c0 3.432.335 4.687 2.386 5.608zm20.466-16.993l-.92 3.39c-.293-.167-1.214-.46-1.967-.46-3.558 0-5.232 3.39-5.232 7.576v9.92h-4.311V42.09h4.31v2.93c.503-1.925 2.721-3.306 5.19-3.306 1.13 0 2.345.293 2.93.627zm11.343-.67c5.943 0 8.329 3.6 8.329 6.656v14.44h-4.311v-2.26c-1.507 2.05-4.185 2.636-5.86 2.636-4.73 0-7.826-2.762-7.826-6.446 0-5.148 3.85-6.99 7.826-6.99h5.86v-1.38c0-1.298-.502-3.098-4.018-3.098-1.967 0-3.767 1.047-4.939 2.68l-2.971-2.68c1.967-2.176 4.77-3.557 7.91-3.557zm4.018 14.65v-3.097h-5.274c-2.553 0-4.352 1.297-4.06 3.64.252 1.968 1.842 2.763 4.06 2.763 3.976 0 5.274-1.883 5.274-3.306z" fill="#24305e"/>
</svg>